<svg xmlns="http://www.w3.org/2000/svg" xmlns:xlink="http://www.w3.org/1999/xlink" width="500" zoomAndPan="magnify" viewBox="0 0 375 187.499995" height="250" preserveAspectRatio="xMidYMid meet" version="1.0"><defs><g/><clipPath id="e0ffc585b9"><path d="M 337 73 L 374.5 73 L 374.5 122 L 337 122 Z M 337 73 " clip-rule="nonzero"/></clipPath></defs><g fill="#ffffff" fill-opacity="1"><g transform="translate(0.519835, 117.754089)"><g><path d="M 18.273438 -52.320312 C 18.199219 -54.441406 18.121094 -56.566406 17.96875 -58.6875 C 17.820312 -60.582031 17.515625 -60.8125 15.695312 -60.507812 C 14.785156 -60.28125 13.875 -60.128906 12.964844 -59.902344 C 10.917969 -59.523438 10.84375 -59.445312 10.539062 -57.324219 C 10.007812 -53.304688 9.707031 -49.359375 9.628906 -45.34375 C 9.476562 -38.214844 9.476562 -31.011719 9.628906 -23.882812 C 9.628906 -23.277344 9.628906 -22.746094 9.628906 -22.140625 C 9.628906 -21.535156 9.25 -21.230469 8.644531 -21.382812 C 7.507812 -21.6875 6.371094 -21.914062 5.308594 -22.214844 C 4.320312 -22.519531 4.019531 -22.066406 3.792969 -21.230469 C 3.5625 -20.246094 3.941406 -19.636719 4.929688 -19.335938 C 6.21875 -19.03125 7.429688 -18.652344 8.644531 -18.347656 C 9.402344 -18.121094 9.78125 -17.742188 9.855469 -16.984375 C 9.855469 -16.453125 9.933594 -15.847656 10.007812 -15.316406 C 10.3125 -10.160156 10.691406 -5.003906 11.070312 0.152344 C 11.144531 1.441406 11.222656 2.730469 11.449219 3.941406 C 11.675781 5.761719 12.054688 5.988281 13.875 5.839844 C 14.710938 5.761719 15.542969 5.6875 16.378906 5.609375 C 18.652344 5.382812 18.878906 5.15625 18.804688 3.03125 C 18.804688 2.425781 18.804688 1.894531 18.804688 1.289062 C 18.425781 -4.320312 18.347656 -10.007812 18.347656 -15.621094 C 18.347656 -17.589844 18.347656 -17.589844 20.246094 -17.96875 C 24.339844 -18.726562 28.054688 -20.167969 31.542969 -22.445312 C 40.261719 -28.207031 44.734375 -38.292969 42.839844 -47.921875 C 42.386719 -50.195312 41.476562 -52.167969 39.808594 -53.757812 C 36.015625 -57.398438 30.707031 -57.703125 26.082031 -54.515625 C 23.503906 -52.773438 21.535156 -50.347656 19.867188 -47.769531 C 19.488281 -47.164062 19.257812 -46.480469 18.425781 -45.949219 C 18.347656 -48.222656 18.347656 -50.269531 18.273438 -52.320312 Z M 24.113281 -46.554688 C 25.550781 -48.832031 27.222656 -50.800781 29.417969 -52.394531 C 31.011719 -53.457031 31.542969 -53.457031 32.984375 -52.089844 C 34.195312 -50.800781 35.03125 -49.285156 35.332031 -47.542969 C 36.621094 -40.339844 35.789062 -33.515625 31.164062 -27.449219 C 28.359375 -23.808594 24.71875 -21.535156 20.167969 -20.699219 C 18.425781 -20.320312 18.425781 -20.398438 18.347656 -22.214844 C 18.347656 -23.808594 18.347656 -25.324219 18.347656 -26.917969 C 17.894531 -34.195312 20.546875 -40.488281 24.113281 -46.554688 Z M 24.113281 -46.554688 "/></g></g></g><g fill="#ffffff" fill-opacity="1"><g transform="translate(42.901001, 117.754089)"><g><path d="M 18.578125 -21.609375 C 19.109375 -21.535156 19.5625 -21.382812 20.015625 -21.304688 C 24.414062 -20.246094 28.738281 -21.078125 32.984375 -22.140625 C 33.894531 -22.367188 34.121094 -22.824219 33.894531 -23.734375 C 33.742188 -24.566406 33.136719 -24.644531 32.453125 -24.492188 C 31.617188 -24.261719 30.785156 -24.1875 29.949219 -23.960938 C 24.644531 -22.59375 20.398438 -24.339844 16.679688 -28.054688 C 16.074219 -28.660156 15.46875 -29.269531 14.863281 -29.875 C 14.101562 -30.707031 13.269531 -31.46875 12.359375 -32.148438 C 10.085938 -33.816406 8.339844 -33.816406 6.140625 -32.074219 C 4.777344 -31.085938 3.792969 -29.796875 2.882812 -28.433594 C -0.0742188 -23.882812 -1.59375 -18.878906 -2.046875 -13.496094 C -2.351562 -10.539062 -1.894531 -7.660156 -0.53125 -5.003906 C 0.757812 -2.503906 2.652344 -0.757812 5.382812 -0.152344 C 10.765625 1.136719 14.863281 -0.984375 16.984375 -6.066406 C 18.878906 -10.765625 19.5625 -15.542969 18.273438 -20.546875 C 18.199219 -20.777344 18.273438 -21.078125 18.199219 -21.457031 C 18.5 -21.535156 18.5 -21.609375 18.578125 -21.609375 Z M 10.84375 -26.539062 C 14.863281 -19.867188 15.695312 -12.890625 12.285156 -5.761719 C 11.753906 -4.777344 11.222656 -3.867188 10.386719 -3.109375 C 9.402344 -2.199219 8.492188 -2.273438 7.660156 -3.410156 C 7.128906 -4.09375 6.898438 -4.851562 6.597656 -5.6875 C 5.6875 -8.945312 5.6875 -12.207031 6.140625 -15.46875 C 6.597656 -18.5 7.128906 -21.535156 8.113281 -24.414062 C 8.492188 -25.550781 8.945312 -26.691406 9.707031 -27.601562 C 10.3125 -27.371094 10.617188 -26.917969 10.84375 -26.539062 Z M 10.84375 -26.539062 "/></g></g></g><g fill="#ffffff" fill-opacity="1"><g transform="translate(73.15161, 117.754089)"><g><path d="M -2.652344 -25.171875 C -2.199219 -19.5625 -1.214844 -14.027344 0.757812 -8.644531 C 1.742188 -5.761719 3.109375 -3.03125 5.082031 -0.605469 C 6.519531 1.214844 8.417969 2.273438 10.765625 2.503906 C 14.40625 2.882812 17.363281 1.820312 19.636719 -1.0625 C 20.320312 -1.894531 20.925781 -2.804688 21.535156 -3.640625 C 24.792969 -8.71875 26.460938 -14.40625 28.660156 -19.941406 C 28.738281 -20.167969 28.738281 -20.398438 28.738281 -20.546875 C 28.8125 -20.851562 28.660156 -21.15625 28.433594 -21.304688 C 27.222656 -22.140625 25.855469 -21.761719 25.25 -20.472656 C 25.097656 -20.015625 24.945312 -19.636719 24.792969 -19.257812 C 22.671875 -14.632812 20.851562 -9.855469 18.347656 -5.460938 C 17.589844 -4.09375 16.757812 -2.730469 15.542969 -1.667969 C 13.269531 0.453125 11.601562 0.152344 10.234375 -2.578125 C 10.160156 -2.730469 10.007812 -2.957031 9.933594 -3.183594 C 8.1875 -7.808594 7.128906 -12.585938 6.898438 -17.515625 C 6.824219 -18.347656 7.050781 -19.03125 7.582031 -19.714844 C 12.738281 -26.765625 16.378906 -34.574219 19.5625 -42.613281 C 21.003906 -46.253906 21.914062 -50.042969 22.140625 -53.910156 C 22.367188 -56.640625 22.140625 -59.292969 21.078125 -61.871094 C 19.5625 -65.4375 16.152344 -67.253906 12.359375 -66.496094 C 9.328125 -65.890625 7.050781 -64.148438 5.15625 -61.796875 C 2.957031 -58.992188 1.515625 -55.804688 0.378906 -52.546875 C -2.046875 -45.644531 -2.804688 -38.59375 -2.957031 -30.785156 C -2.882812 -29.34375 -2.882812 -27.296875 -2.652344 -25.171875 Z M 6.140625 -25.703125 C 5.535156 -36.621094 6.519531 -47.390625 10.386719 -57.703125 C 10.917969 -59.066406 11.449219 -60.355469 12.285156 -61.570312 C 13.496094 -63.3125 14.480469 -63.238281 15.46875 -61.265625 C 16.679688 -58.914062 17.058594 -56.414062 16.910156 -53.757812 C 16.679688 -48.300781 15.390625 -43.066406 13.269531 -38.0625 C 11.675781 -34.195312 10.007812 -30.40625 8.039062 -26.765625 C 7.582031 -26.082031 7.203125 -25.324219 6.671875 -24.492188 C 6.066406 -24.945312 6.140625 -25.324219 6.140625 -25.703125 Z M 6.140625 -25.703125 "/></g></g></g><g fill="#ffffff" fill-opacity="1"><g transform="translate(98.170909, 117.754089)"><g><path d="M 40.640625 -21.230469 C 39.429688 -21.761719 39.199219 -21.6875 38.441406 -20.167969 C 36.773438 -16.910156 35.257812 -13.574219 33.589844 -10.386719 C 31.617188 -6.519531 29.722656 -2.652344 27.222656 0.835938 C 26.839844 1.441406 26.539062 2.199219 25.703125 2.425781 C 25.25 1.515625 25.25 0.683594 25.25 -0.226562 C 25.171875 -3.183594 25.25 -6.21875 25.476562 -9.175781 C 25.933594 -17.289062 26.386719 -25.324219 26.460938 -33.4375 C 26.460938 -34.347656 26.460938 -35.257812 26.234375 -36.167969 C 26.082031 -36.621094 25.933594 -37.078125 25.402344 -37.078125 C 23.277344 -37.078125 21.15625 -37.304688 19.109375 -36.621094 C 18.425781 -36.394531 17.96875 -36.320312 17.289062 -36.472656 C 15.621094 -36.851562 13.953125 -37.152344 12.207031 -36.773438 C 6.898438 -35.789062 3.640625 -32.375 1.59375 -27.675781 C -0.152344 -23.734375 -0.683594 -19.5625 -0.378906 -15.316406 C -0.304688 -13.269531 0.0742188 -11.222656 0.910156 -9.25 C 1.667969 -7.277344 3.183594 -6.445312 5.230469 -6.445312 C 6.898438 -6.371094 8.339844 -6.976562 9.476562 -8.1875 C 10.539062 -9.402344 11.523438 -10.765625 12.359375 -12.207031 C 13.191406 -13.648438 14.027344 -15.089844 14.9375 -16.605469 C 15.46875 -16.152344 15.242188 -15.695312 15.316406 -15.316406 C 15.46875 -12.359375 15.542969 -9.328125 16.074219 -6.371094 C 16.53125 -3.109375 17.136719 0.152344 18.726562 3.109375 C 20.851562 7.050781 26.386719 7.734375 29.417969 4.398438 C 30.558594 3.183594 31.46875 1.820312 32.226562 0.304688 C 35.484375 -5.988281 38.59375 -12.433594 41.476562 -18.957031 C 42.15625 -20.472656 42.082031 -20.625 40.640625 -21.230469 Z M 17.289062 -31.085938 C 17.210938 -30.253906 17.058594 -29.34375 16.679688 -28.585938 C 14.101562 -22.519531 11.296875 -16.605469 7.886719 -10.996094 C 7.355469 -10.160156 6.976562 -8.871094 5.761719 -9.175781 C 4.550781 -9.476562 5.15625 -10.84375 5.003906 -11.753906 C 5.003906 -12.132812 5.003906 -12.585938 5.003906 -13.042969 C 5.15625 -18.5 6.21875 -23.808594 9.175781 -28.585938 C 10.007812 -29.875 10.917969 -31.164062 12.054688 -32.300781 C 12.664062 -32.90625 13.34375 -33.363281 14.253906 -33.589844 C 16.226562 -34.121094 17.515625 -33.136719 17.289062 -31.085938 Z M 17.289062 -31.085938 "/></g></g></g><g fill="#ffffff" fill-opacity="1"><g transform="translate(137.216175, 117.754089)"><g><path d="M 14.558594 -36.621094 C 12.664062 -27.902344 11.753906 -19.109375 11.828125 -10.234375 C 11.828125 -5.535156 12.585938 -0.984375 14.9375 3.261719 C 15.390625 4.09375 15.921875 4.929688 16.605469 5.6875 C 18.726562 8.1875 25.171875 8.339844 27.902344 5.6875 C 30.101562 3.488281 31.847656 0.984375 33.285156 -1.742188 C 36.699219 -8.113281 38.898438 -15.011719 40.945312 -21.914062 C 41.171875 -22.746094 41.398438 -23.582031 41.550781 -24.414062 C 41.703125 -24.792969 41.777344 -25.171875 41.398438 -25.402344 C 40.566406 -25.933594 39.65625 -25.855469 38.746094 -25.855469 C 38.0625 -25.855469 37.910156 -25.097656 37.761719 -24.566406 C 36.621094 -21.457031 35.410156 -18.273438 34.347656 -15.089844 C 32.832031 -10.464844 31.164062 -5.761719 28.660156 -1.515625 C 27.449219 0.53125 26.160156 2.503906 24.339844 4.09375 C 23.125 5.15625 22.671875 5.082031 22.140625 3.488281 C 21.230469 0.835938 20.925781 -1.972656 20.777344 -4.777344 C 20.546875 -11.449219 20.925781 -18.046875 21.914062 -24.644531 C 22.519531 -28.507812 23.203125 -32.375 23.65625 -36.320312 C 24.035156 -39.125 22.976562 -40.261719 20.09375 -40.261719 C 18.121094 -40.261719 16.074219 -40.261719 14.101562 -40.414062 C 12.359375 -40.488281 10.617188 -40.71875 9.175781 -41.550781 C 7.507812 -42.539062 5.761719 -42.613281 4.019531 -42.839844 C 2.882812 -42.992188 2.199219 -42.6875 2.046875 -41.476562 C 1.972656 -40.867188 1.820312 -40.339844 1.742188 -39.808594 C 1.515625 -36.320312 1.136719 -32.832031 0.910156 -29.269531 C 0.53125 -21.835938 -0.226562 -14.480469 -1.441406 -7.128906 C -1.820312 -5.230469 -2.125 -3.335938 -2.125 -1.441406 C -2.125 -0.910156 -2.199219 -0.453125 -1.59375 -0.152344 C 0.453125 0.683594 1.667969 0.0742188 2.199219 -1.972656 C 2.199219 -2.199219 2.273438 -2.425781 2.273438 -2.652344 C 4.472656 -12.511719 6.066406 -22.445312 6.671875 -32.527344 C 6.824219 -34.652344 7.050781 -36.773438 7.203125 -39.125 C 9.707031 -38.441406 12.132812 -38.367188 14.632812 -38.0625 C 14.863281 -37.382812 14.632812 -37.003906 14.558594 -36.621094 Z M 14.558594 -36.621094 "/></g></g></g><g fill="#ffffff" fill-opacity="1"><g transform="translate(173.456255, 117.754089)"><g/></g></g><g fill="#ffffff" fill-opacity="1"><g transform="translate(197.262493, 117.754089)"><g><path d="M 18.273438 -52.320312 C 18.199219 -54.441406 18.121094 -56.566406 17.96875 -58.6875 C 17.820312 -60.582031 17.515625 -60.8125 15.695312 -60.507812 C 14.785156 -60.28125 13.875 -60.128906 12.964844 -59.902344 C 10.917969 -59.523438 10.84375 -59.445312 10.539062 -57.324219 C 10.007812 -53.304688 9.707031 -49.359375 9.628906 -45.34375 C 9.476562 -38.214844 9.476562 -31.011719 9.628906 -23.882812 C 9.628906 -23.277344 9.628906 -22.746094 9.628906 -22.140625 C 9.628906 -21.535156 9.25 -21.230469 8.644531 -21.382812 C 7.507812 -21.6875 6.371094 -21.914062 5.308594 -22.214844 C 4.320312 -22.519531 4.019531 -22.066406 3.792969 -21.230469 C 3.5625 -20.246094 3.941406 -19.636719 4.929688 -19.335938 C 6.21875 -19.03125 7.429688 -18.652344 8.644531 -18.347656 C 9.402344 -18.121094 9.78125 -17.742188 9.855469 -16.984375 C 9.855469 -16.453125 9.933594 -15.847656 10.007812 -15.316406 C 10.3125 -10.160156 10.691406 -5.003906 11.070312 0.152344 C 11.144531 1.441406 11.222656 2.730469 11.449219 3.941406 C 11.675781 5.761719 12.054688 5.988281 13.875 5.839844 C 14.710938 5.761719 15.542969 5.6875 16.378906 5.609375 C 18.652344 5.382812 18.878906 5.15625 18.804688 3.03125 C 18.804688 2.425781 18.804688 1.894531 18.804688 1.289062 C 18.425781 -4.320312 18.347656 -10.007812 18.347656 -15.621094 C 18.347656 -17.589844 18.347656 -17.589844 20.246094 -17.96875 C 24.339844 -18.726562 28.054688 -20.167969 31.542969 -22.445312 C 40.261719 -28.207031 44.734375 -38.292969 42.839844 -47.921875 C 42.386719 -50.195312 41.476562 -52.167969 39.808594 -53.757812 C 36.015625 -57.398438 30.707031 -57.703125 26.082031 -54.515625 C 23.503906 -52.773438 21.535156 -50.347656 19.867188 -47.769531 C 19.488281 -47.164062 19.257812 -46.480469 18.425781 -45.949219 C 18.347656 -48.222656 18.347656 -50.269531 18.273438 -52.320312 Z M 24.113281 -46.554688 C 25.550781 -48.832031 27.222656 -50.800781 29.417969 -52.394531 C 31.011719 -53.457031 31.542969 -53.457031 32.984375 -52.089844 C 34.195312 -50.800781 35.03125 -49.285156 35.332031 -47.542969 C 36.621094 -40.339844 35.789062 -33.515625 31.164062 -27.449219 C 28.359375 -23.808594 24.71875 -21.535156 20.167969 -20.699219 C 18.425781 -20.320312 18.425781 -20.398438 18.347656 -22.214844 C 18.347656 -23.808594 18.347656 -25.324219 18.347656 -26.917969 C 17.894531 -34.195312 20.546875 -40.488281 24.113281 -46.554688 Z M 24.113281 -46.554688 "/></g></g></g><g fill="#ffffff" fill-opacity="1"><g transform="translate(239.643658, 117.754089)"><g><path d="M 22.292969 -22.140625 C 21.003906 -22.59375 20.851562 -22.59375 20.09375 -21.230469 C 20.015625 -21.003906 19.867188 -20.699219 19.714844 -20.472656 C 17.210938 -15.542969 14.710938 -10.691406 12.207031 -5.761719 C 11.753906 -4.851562 11.296875 -4.019531 10.765625 -3.183594 C 10.007812 -2.046875 9.328125 -2.125 8.644531 -3.261719 C 8.039062 -4.398438 7.660156 -5.6875 7.429688 -6.898438 C 6.898438 -10.160156 6.898438 -13.496094 6.75 -16.757812 C 6.519531 -22.746094 7.128906 -28.738281 7.582031 -34.726562 C 7.808594 -37.683594 7.734375 -37.761719 4.625 -37.835938 C 4.472656 -37.835938 4.246094 -37.835938 4.019531 -37.835938 C 3.261719 -37.910156 2.804688 -37.609375 2.578125 -36.851562 C 2.351562 -36.242188 2.046875 -35.714844 1.894531 -35.03125 C 0.453125 -29.417969 -0.453125 -23.734375 -0.453125 -17.515625 C -0.53125 -14.632812 -0.304688 -11.375 0.453125 -8.113281 C 0.984375 -6.066406 1.667969 -4.171875 2.957031 -2.503906 C 6.140625 1.59375 12.738281 1.214844 15.316406 -3.261719 C 16 -4.472656 16.605469 -5.839844 17.136719 -7.128906 C 19.03125 -11.449219 20.925781 -15.769531 22.824219 -20.09375 C 23.125 -20.925781 23.503906 -21.6875 22.292969 -22.140625 Z M 6.292969 -41.855469 C 8.339844 -41.929688 9.554688 -43.066406 9.554688 -44.964844 C 9.554688 -46.785156 8.265625 -47.921875 6.066406 -47.84375 C 4.398438 -47.84375 3.03125 -46.253906 3.109375 -44.433594 C 3.109375 -42.6875 4.171875 -41.855469 6.292969 -41.855469 Z M 6.292969 -41.855469 "/></g></g></g><g fill="#ffffff" fill-opacity="1"><g transform="translate(259.886547, 117.754089)"><g><path d="M 17.058594 -44.585938 C 15.316406 -44.8125 14.332031 -43.976562 13.421875 -42.613281 C 10.917969 -39.050781 9.023438 -35.105469 7.128906 -31.164062 C 6.824219 -30.558594 6.75 -29.875 5.988281 -29.417969 C 5.6875 -30.179688 5.460938 -30.707031 5.230469 -31.316406 C 3.714844 -35.332031 2.273438 -39.351562 0.605469 -43.371094 C -0.910156 -47.164062 -0.0742188 -46.328125 -3.941406 -46.023438 C -6.371094 -45.875 -6.371094 -45.796875 -6.066406 -43.296875 C -5.988281 -42.765625 -5.988281 -42.308594 -5.839844 -41.777344 C -4.472656 -34.347656 -2.425781 -27.070312 0.378906 -20.015625 C 0.984375 -18.578125 0.910156 -17.515625 0.304688 -16.152344 C -1.894531 -11.375 -4.019531 -6.519531 -5.761719 -1.515625 C -6.898438 1.742188 -6.671875 1.972656 -3.261719 2.046875 C -1.363281 2.046875 -1.363281 2.046875 -0.605469 0.226562 C 0.757812 -2.957031 2.199219 -6.140625 3.640625 -9.402344 C 3.867188 -9.855469 3.867188 -10.539062 4.699219 -10.617188 C 5.082031 -10.007812 5.460938 -9.328125 5.914062 -8.644531 C 7.277344 -6.292969 8.71875 -4.019531 10.464844 -1.972656 C 12.664062 0.683594 15.164062 2.804688 18.578125 3.792969 C 22.214844 4.929688 23.808594 4.472656 26.3125 1.515625 C 29.570312 -2.578125 31.695312 -7.203125 33.285156 -12.207031 C 33.515625 -13.042969 33.742188 -13.953125 33.894531 -14.863281 C 34.042969 -15.390625 33.894531 -15.769531 33.363281 -15.847656 C 32.90625 -16 32.375 -16.074219 32.074219 -15.542969 C 31.847656 -15.089844 31.617188 -14.632812 31.46875 -14.179688 C 30.632812 -12.132812 29.875 -10.160156 29.039062 -8.1875 C 27.75 -4.929688 25.78125 -2.199219 23.355469 0.304688 C 21.761719 1.894531 20.851562 1.894531 19.257812 0.226562 C 17.894531 -1.136719 16.984375 -2.882812 16.152344 -4.625 C 14.027344 -9.628906 11.980469 -14.632812 9.78125 -19.636719 C 9.328125 -20.699219 9.402344 -21.609375 9.933594 -22.671875 C 13.117188 -29.191406 16.453125 -35.714844 20.09375 -42.007812 C 20.472656 -42.6875 21.003906 -43.296875 21.078125 -44.355469 C 19.636719 -44.660156 18.347656 -44.433594 17.058594 -44.585938 Z M 17.058594 -44.585938 "/></g></g></g><g fill="#ffffff" fill-opacity="1"><g transform="translate(290.971134, 117.754089)"><g><path d="M 31.769531 -21.988281 C 30.558594 -22.824219 29.949219 -22.824219 29.191406 -21.914062 C 28.433594 -21.003906 27.828125 -20.09375 27.144531 -19.183594 C 23.960938 -14.710938 20.625 -10.3125 17.058594 -6.140625 C 16.453125 -5.382812 15.847656 -4.699219 15.011719 -4.171875 C 13.875 -3.410156 12.964844 -3.488281 11.980469 -4.550781 C 11.375 -5.230469 10.84375 -6.066406 10.617188 -6.898438 C 9.328125 -10.996094 8.339844 -15.164062 8.1875 -19.488281 C 8.1875 -20.546875 8.492188 -21.003906 9.554688 -21.304688 C 15.46875 -23.050781 18.726562 -27.070312 19.636719 -33.058594 C 20.09375 -36.394531 19.109375 -39.199219 16.300781 -41.171875 C 13.574219 -43.066406 10.617188 -42.6875 7.808594 -41.097656 C 5.308594 -39.578125 3.488281 -37.382812 2.125 -34.804688 C -0.152344 -30.40625 -1.0625 -25.703125 -1.289062 -20.777344 C -1.363281 -19.183594 -1.136719 -17.667969 -0.835938 -16.074219 C -0.152344 -11.828125 1.363281 -7.886719 4.171875 -4.472656 C 7.660156 -0.226562 16.378906 1.136719 20.699219 -4.699219 C 24.492188 -9.78125 28.207031 -14.9375 31.769531 -20.246094 C 32.148438 -20.777344 32.679688 -21.382812 31.769531 -21.988281 Z M 9.476562 -31.316406 C 9.933594 -33.210938 10.617188 -35.105469 11.375 -36.925781 C 11.601562 -37.53125 11.980469 -38.214844 12.738281 -38.140625 C 13.421875 -38.0625 13.722656 -37.457031 14.027344 -36.851562 C 14.027344 -36.699219 14.101562 -36.546875 14.101562 -36.394531 C 15.390625 -32.453125 13.042969 -26.160156 9.476562 -24.035156 C 9.175781 -23.808594 8.796875 -23.65625 8.265625 -23.808594 C 8.265625 -26.3125 8.871094 -28.8125 9.476562 -31.316406 Z M 9.476562 -31.316406 "/></g></g></g><g fill="#ffffff" fill-opacity="1"><g transform="translate(319.553782, 117.754089)"><g><path d="M -2.652344 -25.171875 C -2.199219 -19.5625 -1.214844 -14.027344 0.757812 -8.644531 C 1.742188 -5.761719 3.109375 -3.03125 5.082031 -0.605469 C 6.519531 1.214844 8.417969 2.273438 10.765625 2.503906 C 14.40625 2.882812 17.363281 1.820312 19.636719 -1.0625 C 20.320312 -1.894531 20.925781 -2.804688 21.535156 -3.640625 C 24.792969 -8.71875 26.460938 -14.40625 28.660156 -19.941406 C 28.738281 -20.167969 28.738281 -20.398438 28.738281 -20.546875 C 28.8125 -20.851562 28.660156 -21.15625 28.433594 -21.304688 C 27.222656 -22.140625 25.855469 -21.761719 25.25 -20.472656 C 25.097656 -20.015625 24.945312 -19.636719 24.792969 -19.257812 C 22.671875 -14.632812 20.851562 -9.855469 18.347656 -5.460938 C 17.589844 -4.09375 16.757812 -2.730469 15.542969 -1.667969 C 13.269531 0.453125 11.601562 0.152344 10.234375 -2.578125 C 10.160156 -2.730469 10.007812 -2.957031 9.933594 -3.183594 C 8.1875 -7.808594 7.128906 -12.585938 6.898438 -17.515625 C 6.824219 -18.347656 7.050781 -19.03125 7.582031 -19.714844 C 12.738281 -26.765625 16.378906 -34.574219 19.5625 -42.613281 C 21.003906 -46.253906 21.914062 -50.042969 22.140625 -53.910156 C 22.367188 -56.640625 22.140625 -59.292969 21.078125 -61.871094 C 19.5625 -65.4375 16.152344 -67.253906 12.359375 -66.496094 C 9.328125 -65.890625 7.050781 -64.148438 5.15625 -61.796875 C 2.957031 -58.992188 1.515625 -55.804688 0.378906 -52.546875 C -2.046875 -45.644531 -2.804688 -38.59375 -2.957031 -30.785156 C -2.882812 -29.34375 -2.882812 -27.296875 -2.652344 -25.171875 Z M 6.140625 -25.703125 C 5.535156 -36.621094 6.519531 -47.390625 10.386719 -57.703125 C 10.917969 -59.066406 11.449219 -60.355469 12.285156 -61.570312 C 13.496094 -63.3125 14.480469 -63.238281 15.46875 -61.265625 C 16.679688 -58.914062 17.058594 -56.414062 16.910156 -53.757812 C 16.679688 -48.300781 15.390625 -43.066406 13.269531 -38.0625 C 11.675781 -34.195312 10.007812 -30.40625 8.039062 -26.765625 C 7.582031 -26.082031 7.203125 -25.324219 6.671875 -24.492188 C 6.066406 -24.945312 6.140625 -25.324219 6.140625 -25.703125 Z M 6.140625 -25.703125 "/></g></g></g><g clip-path="url(#e0ffc585b9)"><g fill="#ffffff" fill-opacity="1"><g transform="translate(344.573082, 117.754089)"><g><path d="M 7.429688 -33.136719 C 9.402344 -28.433594 11.375 -23.734375 12.890625 -18.957031 C 13.722656 -16.300781 13.722656 -16.300781 11.144531 -15.089844 C 8.265625 -13.722656 5.609375 -12.132812 3.714844 -9.476562 C 0.53125 -4.851562 2.199219 0.757812 7.507812 2.578125 C 11.523438 3.941406 15.390625 3.5625 19.03125 1.214844 C 21.003906 -0.0742188 22.367188 -1.894531 22.976562 -4.246094 C 23.503906 -6.371094 23.734375 -8.566406 23.355469 -10.84375 C 23.125 -11.980469 22.976562 -13.042969 22.746094 -14.179688 C 22.367188 -16.152344 22.367188 -16.152344 24.261719 -16.910156 C 25.324219 -17.289062 26.386719 -17.742188 27.449219 -18.199219 C 29.34375 -19.183594 31.164062 -20.398438 32.832031 -21.6875 C 33.285156 -22.066406 33.816406 -22.445312 33.515625 -23.125 C 33.136719 -23.808594 32.453125 -23.960938 31.695312 -23.808594 C 31.011719 -23.65625 30.480469 -23.277344 30.027344 -22.898438 C 27.902344 -21.457031 25.703125 -20.320312 23.355469 -19.410156 C 21.609375 -18.652344 21.535156 -18.652344 21.003906 -20.472656 C 18.804688 -27.144531 15.46875 -33.210938 11.828125 -39.125 C 10.917969 -40.640625 9.707031 -41.929688 8.265625 -42.992188 C 6.140625 -44.585938 4.625 -43.976562 4.019531 -41.476562 C 3.5625 -39.65625 3.183594 -37.835938 2.804688 -36.015625 C 0.378906 -25.097656 -1.667969 -14.027344 -5.308594 -3.410156 C -5.839844 -2.046875 -6.21875 -0.683594 -6.671875 0.683594 C -7.050781 1.59375 -6.671875 1.894531 -5.761719 2.046875 C -4.09375 2.351562 -3.640625 2.199219 -2.882812 0.378906 C 0.605469 -8.265625 3.410156 -17.136719 5.15625 -26.234375 C 5.609375 -28.8125 5.914062 -31.390625 6.75 -34.273438 C 7.128906 -33.664062 7.355469 -33.4375 7.429688 -33.136719 Z M 14.9375 -2.046875 C 13.953125 0.605469 11.675781 1.214844 9.476562 -0.453125 C 7.355469 -2.046875 6.597656 -4.550781 7.582031 -7.128906 C 8.644531 -10.007812 10.917969 -11.675781 13.496094 -13.042969 C 14.253906 -13.34375 14.632812 -13.042969 14.785156 -12.359375 C 15.242188 -10.386719 15.621094 -8.417969 15.621094 -6.21875 C 15.695312 -4.929688 15.46875 -3.410156 14.9375 -2.046875 Z M 14.9375 -2.046875 "/></g></g></g></g></svg>